# 3ds Max Wavefront OBJ Exporter v0.97b - (c)2007 guruware
# ´´½¨µÄÎÄ¼þ:30.05.2019 14:44:48

mtllib Çé±¨°å.mtl

#
# object DNKBQBBZ2
#

v  1.3707 0.3110 -0.3165
v  1.3707 -1.0890 -0.3165
v  -1.4061 -1.0890 0.0436
v  -1.4061 0.3110 0.0436
v  1.4605 0.3610 -0.0129
v  1.4155 0.3610 -0.3600
v  -1.4605 0.3610 0.0129
v  -1.4155 0.3610 0.3600
v  1.4061 -1.0890 -0.0436
v  1.4061 0.3110 -0.0436
v  -1.3707 0.3110 0.3164
v  -1.3707 -1.0890 0.3164
v  1.4155 -1.1390 -0.3600
v  1.4605 -1.1390 -0.0129
v  -1.4155 -1.1390 0.3600
v  -1.4605 -1.1390 0.0129
v  0.6724 1.1390 -0.0695
v  0.6724 0.3610 -0.0695
v  0.6887 0.3610 -0.0605
v  0.6887 1.1390 -0.0605
v  0.7070 0.3610 -0.0630
v  0.7070 1.1390 -0.0630
v  0.7205 0.3610 -0.0757
v  0.7205 1.1390 -0.0757
v  0.7239 0.3610 -0.0939
v  0.7239 1.1390 -0.0939
v  0.7160 0.3610 -0.1106
v  0.7160 1.1390 -0.1106
v  0.6997 0.3610 -0.1196
v  0.6997 1.1390 -0.1196
v  0.6813 0.3610 -0.1172
v  0.6813 1.1390 -0.1172
v  0.6678 0.3610 -0.1044
v  0.6678 1.1390 -0.1044
v  0.6644 0.3610 -0.0862
v  0.6644 1.1390 -0.0862
v  0.6942 1.1390 -0.0901
v  -0.7160 1.1390 0.1105
v  -0.7160 0.3610 0.1105
v  -0.6997 0.3610 0.1194
v  -0.6997 1.1390 0.1194
v  -0.6813 0.3610 0.1171
v  -0.6813 1.1390 0.1171
v  -0.6679 0.3610 0.1043
v  -0.6679 1.1390 0.1043
v  -0.6644 0.3610 0.0861
v  -0.6644 1.1390 0.0861
v  -0.6724 0.3610 0.0694
v  -0.6724 1.1390 0.0694
v  -0.6887 0.3610 0.0605
v  -0.6887 1.1390 0.0605
v  -0.7071 0.3610 0.0629
v  -0.7071 1.1390 0.0629
v  -0.7205 0.3610 0.0756
v  -0.7205 1.1390 0.0756
v  -0.7239 0.3610 0.0938
v  -0.7239 1.1390 0.0938
v  -0.6942 1.1390 0.0900
v  1.4109 0.3110 -0.0065
v  -1.3659 0.3110 0.3535
v  -1.3659 -1.0890 0.3535
v  1.4109 -1.0890 -0.0065
v  1.3659 -1.0890 -0.3536
v  -1.4109 -1.0890 0.0065
v  -1.4109 0.3110 0.0065
v  1.3659 0.3110 -0.3536
# 66 vertices

vn -0.1286 0.0000 -0.9917
vn -0.0000 1.0000 0.0000
vn 0.1286 -0.0000 0.9917
vn 0.0000 -1.0000 -0.0000
vn -0.9917 -0.0000 0.1286
vn 0.9917 0.0000 -0.1286
vn -0.7265 -0.0000 0.6872
vn -0.1841 -0.0000 0.9829
vn 0.4287 -0.0000 0.9034
vn 0.8778 -0.0000 0.4791
vn 0.7265 0.0000 -0.6872
vn 0.1841 0.0000 -0.9829
vn -0.4287 0.0000 -0.9034
vn -0.8778 0.0000 -0.4791
# 14 vertex normals

vt 0.9188 0.4894 0.0000
vt 0.6751 0.4894 0.0000
vt 0.6751 0.0020 0.0000
vt 0.9188 0.0020 0.0000
vt 0.0628 0.5068 0.0000
vt 0.0019 0.5068 0.0000
vt 0.0019 0.0020 0.0000
vt 0.0628 0.0020 0.0000
vt 0.9417 0.9806 0.0000
vt 0.6980 0.9806 0.0000
vt 0.6980 0.4932 0.0000
vt 0.9417 0.4932 0.0000
vt 0.1310 0.5068 0.0000
vt 0.0701 0.5068 0.0000
vt 0.0701 0.0020 0.0000
vt 0.1310 0.0020 0.0000
vt 0.5821 0.7717 0.0000
vt 0.5821 0.5106 0.0000
vt 0.6430 0.5106 0.0000
vt 0.6430 0.7717 0.0000
vt 0.5153 0.7717 0.0000
vt 0.5153 0.5106 0.0000
vt 0.5763 0.5106 0.0000
vt 0.5763 0.7717 0.0000
vt 0.4584 0.6460 0.0000
vt 0.4584 0.5106 0.0000
vt 0.4603 0.5106 0.0000
vt 0.4603 0.6460 0.0000
vt 0.4446 0.5106 0.0000
vt 0.4446 0.6460 0.0000
vt 0.4414 0.6460 0.0000
vt 0.4414 0.5106 0.0000
vt 0.4257 0.6460 0.0000
vt 0.4257 0.5106 0.0000
vt 0.4276 0.5106 0.0000
vt 0.4276 0.6460 0.0000
vt 0.4306 0.5106 0.0000
vt 0.4306 0.6460 0.0000
vt 0.4337 0.5106 0.0000
vt 0.4337 0.6460 0.0000
vt 0.4356 0.5106 0.0000
vt 0.4356 0.6460 0.0000
vt 0.4166 0.6460 0.0000
vt 0.4166 0.5106 0.0000
vt 0.4199 0.5106 0.0000
vt 0.4199 0.6460 0.0000
vt 0.4504 0.6460 0.0000
vt 0.4504 0.5106 0.0000
vt 0.4523 0.5106 0.0000
vt 0.4523 0.6460 0.0000
vt 0.4554 0.5106 0.0000
vt 0.4554 0.6460 0.0000
vt 0.3438 0.5116 0.0000
vt 0.3457 0.5142 0.0000
vt 0.3407 0.5158 0.0000
vt 0.3457 0.5174 0.0000
vt 0.3438 0.5200 0.0000
vt 0.3407 0.5210 0.0000
vt 0.3376 0.5200 0.0000
vt 0.3357 0.5174 0.0000
vt 0.3357 0.5142 0.0000
vt 0.3376 0.5116 0.0000
vt 0.3407 0.5106 0.0000
vt 0.4090 0.6460 0.0000
vt 0.4090 0.5106 0.0000
vt 0.4109 0.5106 0.0000
vt 0.4109 0.6460 0.0000
vt 0.3951 0.5106 0.0000
vt 0.3951 0.6460 0.0000
vt 0.3919 0.6460 0.0000
vt 0.3919 0.5106 0.0000
vt 0.3762 0.6460 0.0000
vt 0.3762 0.5106 0.0000
vt 0.3781 0.5106 0.0000
vt 0.3781 0.6460 0.0000
vt 0.3811 0.5106 0.0000
vt 0.3811 0.6460 0.0000
vt 0.3842 0.5106 0.0000
vt 0.3842 0.6460 0.0000
vt 0.3861 0.5106 0.0000
vt 0.3861 0.6460 0.0000
vt 0.3672 0.6460 0.0000
vt 0.3672 0.5106 0.0000
vt 0.3704 0.5106 0.0000
vt 0.3704 0.6460 0.0000
vt 0.4009 0.6460 0.0000
vt 0.4009 0.5106 0.0000
vt 0.4028 0.5106 0.0000
vt 0.4028 0.6460 0.0000
vt 0.4059 0.5106 0.0000
vt 0.4059 0.6460 0.0000
vt 0.3123 0.5116 0.0000
vt 0.3142 0.5142 0.0000
vt 0.3092 0.5158 0.0000
vt 0.3142 0.5174 0.0000
vt 0.3123 0.5200 0.0000
vt 0.3092 0.5210 0.0000
vt 0.3062 0.5200 0.0000
vt 0.3043 0.5174 0.0000
vt 0.3043 0.5142 0.0000
vt 0.3062 0.5116 0.0000
vt 0.3092 0.5106 0.0000
vt 0.1469 0.4981 0.0000
vt 0.1381 0.5068 0.0000
vt 0.1381 0.0020 0.0000
vt 0.1469 0.0107 0.0000
vt 0.3993 0.0020 0.0000
vt 0.3906 0.0107 0.0000
vt 0.3993 0.5068 0.0000
vt 0.3906 0.4981 0.0000
vt 0.4153 0.4981 0.0000
vt 0.4066 0.5068 0.0000
vt 0.4066 0.0020 0.0000
vt 0.4153 0.0107 0.0000
vt 0.6678 0.0020 0.0000
vt 0.6591 0.0107 0.0000
vt 0.6678 0.5068 0.0000
vt 0.6591 0.4981 0.0000
vt 0.6922 0.9806 0.0000
vt 0.6857 0.9806 0.0000
vt 0.6857 0.4932 0.0000
vt 0.6922 0.4932 0.0000
vt 0.5030 0.5106 0.0000
vt 0.5096 0.5106 0.0000
vt 0.5096 0.7543 0.0000
vt 0.5030 0.7543 0.0000
vt 0.6734 0.4932 0.0000
vt 0.6799 0.4932 0.0000
vt 0.6799 0.9806 0.0000
vt 0.6734 0.9806 0.0000
vt 0.4972 0.7543 0.0000
vt 0.4907 0.7543 0.0000
vt 0.4907 0.5106 0.0000
vt 0.4972 0.5106 0.0000
vt 0.6676 0.9980 0.0000
vt 0.6611 0.9980 0.0000
vt 0.6611 0.5106 0.0000
vt 0.6676 0.5106 0.0000
vt 0.4849 0.7543 0.0000
vt 0.4784 0.7543 0.0000
vt 0.4784 0.5106 0.0000
vt 0.4849 0.5106 0.0000
vt 0.6488 0.5106 0.0000
vt 0.6553 0.5106 0.0000
vt 0.6553 0.9980 0.0000
vt 0.6488 0.9980 0.0000
vt 0.4661 0.5106 0.0000
vt 0.4726 0.5106 0.0000
vt 0.4726 0.7543 0.0000
vt 0.4661 0.7543 0.0000
# 150 texture coords

g Board
usemtl Model_2_1_Model_2_1_Albedo_1Material
s off
f 1/1/1 2/2/1 3/3/1 4/4/1 
f 5/5/2 6/6/2 7/7/2 8/8/2 
f 9/9/3 10/10/3 11/11/3 12/12/3 
f 13/13/4 14/14/4 15/15/4 16/16/4 
f 7/17/5 16/18/5 15/19/5 8/20/5 
f 5/21/6 14/22/6 13/23/6 6/24/6 
f 17/25/7 18/26/7 19/27/8 20/28/8 
f 20/29/8 19/30/8 21/31/9 22/32/9 
f 22/33/9 21/34/9 23/35/10 24/36/10 
f 24/36/10 23/35/10 25/37/6 26/38/6 
f 26/38/6 25/37/6 27/39/11 28/40/11 
f 28/40/11 27/39/11 29/41/12 30/42/12 
f 30/43/12 29/44/12 31/45/13 32/46/13 
f 32/47/13 31/48/13 33/49/14 34/50/14 
f 34/50/14 33/49/14 35/51/5 36/52/5 
f 36/52/5 35/51/5 18/26/7 17/25/7 
f 17/53/2 20/54/2 37/55/2 
f 20/54/2 22/56/2 37/55/2 
f 22/56/2 24/57/2 37/55/2 
f 24/57/2 26/58/2 37/55/2 
f 26/58/2 28/59/2 37/55/2 
f 28/59/2 30/60/2 37/55/2 
f 30/60/2 32/61/2 37/55/2 
f 32/61/2 34/62/2 37/55/2 
f 34/62/2 36/63/2 37/55/2 
f 36/63/2 17/53/2 37/55/2 
f 38/64/7 39/65/7 40/66/8 41/67/8 
f 41/68/8 40/69/8 42/70/9 43/71/9 
f 43/72/9 42/73/9 44/74/10 45/75/10 
f 45/75/10 44/74/10 46/76/6 47/77/6 
f 47/77/6 46/76/6 48/78/11 49/79/11 
f 49/79/11 48/78/11 50/80/12 51/81/12 
f 51/82/12 50/83/12 52/84/13 53/85/13 
f 53/86/13 52/87/13 54/88/14 55/89/14 
f 55/89/14 54/88/14 56/90/5 57/91/5 
f 57/91/5 56/90/5 39/65/7 38/64/7 
f 38/92/2 41/93/2 58/94/2 
f 41/93/2 43/95/2 58/94/2 
f 43/95/2 45/96/2 58/94/2 
f 45/96/2 47/97/2 58/94/2 
f 47/97/2 49/98/2 58/94/2 
f 49/98/2 51/99/2 58/94/2 
f 51/99/2 53/100/2 58/94/2 
f 53/100/2 55/101/2 58/94/2 
f 55/101/2 57/102/2 58/94/2 
f 57/102/2 38/92/2 58/94/2 
f 59/103/3 5/104/3 8/105/3 60/106/3 
f 60/106/3 8/105/3 15/107/3 61/108/3 
f 61/108/3 15/107/3 14/109/3 62/110/3 
f 62/110/3 14/109/3 5/104/3 59/103/3 
f 63/111/1 13/112/1 16/113/1 64/114/1 
f 64/114/1 16/113/1 7/115/1 65/116/1 
f 65/116/1 7/115/1 6/117/1 66/118/1 
f 66/118/1 6/117/1 13/112/1 63/111/1 
f 2/119/2 63/120/2 64/121/2 3/122/2 
f 3/123/6 64/124/6 65/125/6 4/126/6 
f 4/127/4 65/128/4 66/129/4 1/130/4 
f 1/131/5 66/132/5 63/133/5 2/134/5 
f 10/135/4 59/136/4 60/137/4 11/138/4 
f 11/139/6 60/140/6 61/141/6 12/142/6 
f 12/143/2 61/144/2 62/145/2 9/146/2 
f 9/147/5 62/148/5 59/149/5 10/150/5 
# 42 polygons - 20 triangles

