# 3ds Max Wavefront OBJ Exporter v0.97b - (c)2007 guruware
# 创建的文件:30.05.2019 14:47:05

mtllib 逃生.mtl

#
# object Rectangle001
#

v  -0.1250 0.0600 0.0100
v  0.1250 0.0600 0.0100
v  0.1250 0.0600 0.0000
v  -0.1250 0.0600 0.0000
v  -0.1250 -0.0600 0.0100
v  -0.1250 -0.0600 0.0000
v  0.1250 -0.0600 0.0100
v  0.1250 -0.0600 0.0000
v  0.1150 0.0500 0.0070
v  -0.1150 0.0500 0.0070
v  -0.1150 -0.0500 0.0070
v  0.1150 -0.0500 0.0070
v  -0.1150 0.0500 0.0100
v  0.1150 0.0500 0.0100
v  -0.1150 -0.0500 0.0100
v  0.1150 -0.0500 0.0100
# 16 vertices

vn 0.0000 1.0000 0.0000
vn -1.0000 0.0000 -0.0000
vn 0.0000 -1.0000 -0.0000
vn 1.0000 0.0000 -0.0000
vn 0.0000 0.0000 -1.0000
vn 0.0000 -0.0000 1.0000
# 6 vertex normals

vt 0.0000 -0.0000 0.0000
vt -0.0000 0.0000 0.0000
vt 0.0000 0.0000 0.0000
vt 0.9995 0.9995 0.0000
vt 0.0005 0.9995 0.0000
vt 0.0005 0.0005 0.0000
vt 0.9995 0.0005 0.0000
# 7 texture coords

g Rectangle001
usemtl Material__25
s off
f 1/1/1 2/2/1 3/2/1 4/1/1 
f 5/3/2 1/1/2 4/1/2 6/3/2 
f 7/3/3 5/3/3 6/3/3 8/3/3 
f 2/2/4 7/3/4 8/3/4 3/2/4 
f 6/3/5 4/1/5 3/2/5 8/3/5 
usemtl 02___Default
f 9/4/6 10/5/6 11/6/6 12/7/6 
usemtl Material__25
f 2/2/6 1/1/6 13/1/6 14/2/6 
f 1/1/6 5/3/6 15/3/6 13/1/6 
f 5/3/6 7/3/6 16/3/6 15/3/6 
f 7/3/6 2/2/6 14/2/6 16/3/6 
f 14/2/3 13/1/3 10/5/3 9/4/3 
f 13/1/4 15/3/4 11/6/4 10/5/4 
f 15/3/1 16/3/1 12/7/1 11/6/1 
f 16/3/2 14/2/2 9/4/2 12/7/2 
# 14 polygons

