# 3ds Max Wavefront OBJ Exporter v0.97b - (c)2007 guruware
# 创建的文件:30.05.2019 16:59:08

mtllib 隧道照明.mtl

#
# object 对象001
#

v  -0.0355 -0.1671 0.3503
v  -0.0340 -0.1656 0.3387
v  0.1736 0.0169 0.3344
v  0.1756 0.0184 0.3459
v  0.2004 0.0409 0.3113
v  0.1917 0.0333 0.3092
v  0.1786 0.0333 -0.3148
v  0.1872 0.0409 -0.3173
v  0.1609 0.0184 -0.3507
v  0.1594 0.0169 -0.3392
v  -0.0482 -0.1656 -0.3348
v  -0.0501 -0.1671 -0.3463
v  -0.0750 -0.1896 -0.3118
v  -0.0663 -0.1820 -0.3097
v  -0.0532 -0.1820 0.3143
v  -0.0618 -0.1896 0.3168
v  -0.0538 -0.1830 0.3407
v  -0.0480 -0.1778 0.3328
v  0.1935 0.0343 0.3354
v  0.1874 0.0291 0.3278
v  0.1792 0.0343 -0.3412
v  0.1735 0.0291 -0.3333
v  -0.0680 -0.1830 -0.3359
v  -0.0620 -0.1778 -0.3282
v  0.1731 0.0169 0.3096
v  0.1599 0.0169 -0.3145
v  0.1511 -0.0017 0.2682
v  0.1397 -0.0017 -0.2722
v  -0.0477 -0.1656 -0.3101
v  -0.0345 -0.1656 0.3140
v  -0.0142 -0.1470 0.2717
v  0.0599 -0.0295 0.1970
v  -0.0098 -0.0907 0.1985
v  -0.0181 -0.0907 -0.1958
v  0.0516 -0.0295 -0.1973
v  -0.0256 -0.1470 -0.2687
v  0.1656 0.0655 -0.3168
v  0.1788 0.0655 0.3118
v  0.1718 0.0589 0.3359
v  0.1540 0.0430 0.3463
v  -0.0571 -0.1425 0.3508
v  -0.0754 -0.1584 0.3411
v  -0.0834 -0.1650 0.3173
v  -0.0966 -0.1650 -0.3113
v  -0.0896 -0.1584 -0.3356
v  -0.0718 -0.1425 -0.3458
v  0.1393 0.0430 -0.3503
v  0.1576 0.0589 -0.3407
v  0.1432 0.0457 -0.3103
v  0.1562 0.0457 0.3063
v  0.1561 0.0454 0.3159
v  0.1488 0.0390 0.3164
v  -0.0532 -0.1386 0.3207
v  -0.0605 -0.1450 0.3206
v  -0.0610 -0.1452 0.3108
v  -0.0740 -0.1452 -0.3058
v  -0.0739 -0.1450 -0.3156
v  -0.0666 -0.1386 -0.3160
v  0.1354 0.0390 -0.3202
v  0.1427 0.0454 -0.3201
v  0.0167 0.1896 -0.3077
v  0.0297 0.1896 0.3090
v  0.0296 0.1894 0.3186
v  0.0224 0.1830 0.3191
v  -0.1797 0.0054 0.3234
v  -0.1870 -0.0010 0.3231
v  -0.1874 -0.0013 0.3136
v  -0.2004 -0.0013 -0.3032
v  -0.2004 -0.0010 -0.3129
v  -0.1931 0.0054 -0.3134
v  0.0089 0.1830 -0.3175
v  0.0162 0.1894 -0.3174
# 72 vertices

vn 0.6600 -0.7512 -0.0138
vn 0.6602 -0.7510 -0.0139
vn 0.6600 -0.7512 -0.0142
vn 0.6599 -0.7512 -0.0139
vn 0.6599 -0.7512 -0.0138
vn 0.6602 -0.7510 -0.0140
vn 0.6600 -0.7511 -0.0141
vn 0.6600 -0.7511 -0.0139
vn 0.6599 -0.7512 -0.0140
vn 0.6599 -0.7513 -0.0141
vn 0.6601 -0.7510 -0.0139
vn 0.6599 -0.7512 -0.0137
vn 0.6600 -0.7512 -0.0140
vn 0.6600 -0.7512 -0.0139
vn 0.2957 -0.9553 -0.0062
vn 0.5941 -0.6652 0.4523
vn 0.9942 -0.1053 -0.0210
vn 0.5747 -0.6652 -0.4766
vn 0.6601 -0.7511 -0.0140
vn 0.6598 -0.7513 -0.0139
vn 0.7511 0.6600 -0.0158
vn 0.7019 0.6097 0.3683
vn 0.3078 0.2530 0.9172
vn 0.0214 -0.0003 0.9998
vn -0.2697 -0.2531 0.9291
vn -0.6857 -0.6093 0.3982
vn -0.7510 -0.6601 0.0158
vn -0.7017 -0.6101 -0.3678
vn -0.3042 -0.2513 -0.9189
vn -0.0214 0.0003 -0.9998
vn 0.2660 0.2514 -0.9306
vn 0.6859 0.6101 -0.3966
vn -0.6600 0.7512 0.0139
vn -0.6599 0.7512 0.0137
vn -0.6600 0.7511 0.0140
vn -0.6599 0.7512 0.0141
vn -0.6601 0.7511 0.0139
vn -0.6601 0.7511 0.0140
vn -0.6600 0.7512 0.0140
vn -0.6599 0.7512 0.0139
vn 0.7510 0.6601 -0.0158
vn 0.7512 0.6597 0.0209
vn 0.0455 0.0216 0.9987
vn 0.0212 -0.0001 0.9998
vn -0.0059 -0.0239 0.9997
vn -0.7497 -0.6597 0.0526
vn -0.7513 -0.6596 -0.0210
vn -0.0455 -0.0215 -0.9987
vn -0.0209 0.0001 -0.9998
vn 0.0030 0.0211 -0.9998
vn 0.7497 0.6597 -0.0523
# 51 vertex normals

vt 0.0367 0.0020 0.0000
vt 0.0391 0.0079 0.0000
vt 0.3219 0.0079 0.0000
vt 0.3243 0.0020 0.0000
vt 0.3591 0.0195 0.0000
vt 0.3473 0.0206 0.0000
vt 0.3473 0.3407 0.0000
vt 0.3591 0.3418 0.0000
vt 0.3243 0.3593 0.0000
vt 0.3219 0.3534 0.0000
vt 0.0391 0.3534 0.0000
vt 0.0367 0.3593 0.0000
vt 0.0018 0.3418 0.0000
vt 0.0136 0.3407 0.0000
vt 0.0136 0.0206 0.0000
vt 0.0018 0.0195 0.0000
vt 0.0120 0.0071 0.0000
vt 0.0201 0.0111 0.0000
vt 0.3489 0.0071 0.0000
vt 0.3409 0.0111 0.0000
vt 0.3489 0.3542 0.0000
vt 0.3409 0.3502 0.0000
vt 0.0120 0.3542 0.0000
vt 0.0201 0.3502 0.0000
vt 0.3219 0.0206 0.0000
vt 0.3219 0.3407 0.0000
vt 0.2931 0.0421 0.0000
vt 0.2931 0.3192 0.0000
vt 0.0391 0.3407 0.0000
vt 0.0391 0.0206 0.0000
vt 0.0679 0.0421 0.0000
vt 0.2054 0.0795 0.0000
vt 0.1105 0.0795 0.0000
vt 0.1105 0.2818 0.0000
vt 0.2054 0.2818 0.0000
vt 0.0679 0.3192 0.0000
vt 0.7284 0.0143 0.0000
vt 0.7284 0.3367 0.0000
vt 0.7805 0.3367 0.0000
vt 0.7805 0.0143 0.0000
vt 0.7805 0.0020 0.0000
vt 0.7284 0.0020 0.0000
vt 0.8465 0.3389 0.0000
vt 0.8986 0.3389 0.0000
vt 0.8986 0.3142 0.0000
vt 0.8465 0.3142 0.0000
vt 0.8465 0.0267 0.0000
vt 0.8986 0.0267 0.0000
vt 0.8986 0.0020 0.0000
vt 0.8465 0.0020 0.0000
vt 0.7875 0.3491 0.0000
vt 0.8396 0.3491 0.0000
vt 0.8396 0.3367 0.0000
vt 0.7875 0.3367 0.0000
vt 0.7875 0.0143 0.0000
vt 0.8396 0.0143 0.0000
vt 0.8396 0.0020 0.0000
vt 0.7875 0.0020 0.0000
vt 0.8641 0.6794 0.0000
vt 0.9162 0.6794 0.0000
vt 0.9162 0.6548 0.0000
vt 0.8641 0.6548 0.0000
vt 0.8641 0.3672 0.0000
vt 0.9162 0.3672 0.0000
vt 0.9162 0.3425 0.0000
vt 0.8641 0.3425 0.0000
vt 0.7284 0.3491 0.0000
vt 0.7805 0.3491 0.0000
vt 0.7225 0.0195 0.0000
vt 0.6918 0.0225 0.0000
vt 0.6918 0.3388 0.0000
vt 0.7225 0.3418 0.0000
vt 0.6914 0.3437 0.0000
vt 0.7123 0.3542 0.0000
vt 0.6815 0.3439 0.0000
vt 0.6876 0.3593 0.0000
vt 0.4062 0.3439 0.0000
vt 0.4001 0.3593 0.0000
vt 0.3963 0.3437 0.0000
vt 0.3754 0.3542 0.0000
vt 0.3959 0.3388 0.0000
vt 0.3652 0.3418 0.0000
vt 0.3959 0.0225 0.0000
vt 0.3652 0.0195 0.0000
vt 0.3963 0.0176 0.0000
vt 0.3754 0.0071 0.0000
vt 0.4062 0.0174 0.0000
vt 0.4001 0.0020 0.0000
vt 0.6815 0.0174 0.0000
vt 0.6876 0.0020 0.0000
vt 0.6914 0.0176 0.0000
vt 0.7123 0.0071 0.0000
vt 0.5532 0.6842 0.0000
vt 0.8584 0.6842 0.0000
vt 0.8584 0.3679 0.0000
vt 0.5532 0.3679 0.0000
vt 0.8584 0.3630 0.0000
vt 0.5532 0.3630 0.0000
vt 0.2970 0.9980 0.0000
vt 0.2970 0.6928 0.0000
vt 0.2871 0.6928 0.0000
vt 0.2871 0.9980 0.0000
vt 0.0118 0.6928 0.0000
vt 0.0117 0.9980 0.0000
vt 0.0018 0.6928 0.0000
vt 0.0018 0.9980 0.0000
vt 0.2424 0.6891 0.0000
vt 0.5476 0.6891 0.0000
vt 0.5476 0.6842 0.0000
vt 0.2424 0.6842 0.0000
vt 0.5476 0.3679 0.0000
vt 0.2424 0.3679 0.0000
vt 0.5476 0.3630 0.0000
vt 0.2424 0.3630 0.0000
vt 0.5995 0.9980 0.0000
vt 0.5995 0.6928 0.0000
vt 0.5896 0.6928 0.0000
vt 0.5896 0.9980 0.0000
vt 0.3143 0.6928 0.0000
vt 0.3143 0.9980 0.0000
vt 0.3044 0.6928 0.0000
vt 0.3044 0.9980 0.0000
vt 0.5532 0.6892 0.0000
vt 0.8584 0.6892 0.0000
vt 0.4656 0.0978 0.9983
vt 0.4972 0.0975 0.9648
vt 0.6914 0.1104 0.0352
vt 0.5254 0.2743 0.9995
vt 0.7046 0.2629 0.0018
vt 0.7232 0.1261 0.0005
vt 0.7055 0.1161 0.0018
vt 0.7067 0.2479 0.0005
vt 0.5572 0.2902 0.9648
vt 0.6730 0.2633 0.0352
vt 0.5257 0.2894 0.9983
vt 0.4635 0.1128 0.9995
# 136 texture coords

g Light
usemtl zhaomingdeng_ZMD_Albedo_1Material
s off
f 1/1/1 2/2/1 3/3/1 4/4/1 
f 5/5/2 6/6/2 7/7/2 8/8/2 
f 9/9/3 10/10/3 11/11/3 12/12/3 
f 13/13/4 14/14/4 15/15/4 16/16/4 
f 17/17/5 18/18/5 2/2/5 1/1/5 
f 16/16/4 15/15/4 18/18/4 17/17/4 
f 19/19/6 20/20/6 6/6/6 5/5/6 
f 4/4/5 3/3/5 20/20/5 19/19/5 
f 21/21/7 22/22/7 10/10/7 9/9/7 
f 8/8/8 7/7/8 22/22/8 21/21/8 
f 23/23/9 24/24/9 14/14/9 13/13/9 
f 12/12/10 11/11/10 24/24/10 23/23/10 
f 6/6/9 20/20/9 25/25/9 
f 22/22/11 7/7/11 26/26/11 
f 25/25/4 27/27/4 28/28/4 26/26/4 
f 24/24/12 11/11/12 29/29/12 
f 29/29/4 30/30/4 15/15/4 14/14/4 
f 2/2/12 18/18/12 30/30/12 
f 30/30/13 31/31/13 27/27/13 25/25/13 
f 32/32/14 33/33/14 34/34/14 35/35/14 
f 26/26/14 29/29/14 11/11/14 10/10/14 
f 27/27/15 32/32/15 35/35/15 28/28/15 
f 28/28/16 35/35/16 34/34/16 36/36/16 
f 36/36/17 34/34/17 33/33/17 31/31/17 
f 31/31/18 33/33/18 32/32/18 27/27/18 
f 30/30/14 25/25/14 3/3/14 2/2/14 
f 25/25/8 26/26/8 7/7/8 6/6/8 
f 26/26/14 28/28/14 36/36/14 29/29/14 
f 29/29/8 36/36/8 31/31/8 30/30/8 
f 10/10/19 22/22/19 26/26/19 
f 24/24/8 29/29/8 14/14/8 
f 18/18/20 15/15/20 30/30/20 
f 20/20/9 3/3/9 25/25/9 
f 5/37/21 8/38/21 37/39/21 38/40/21 
f 5/37/22 38/40/22 39/41/22 19/42/22 
f 19/43/23 39/44/23 40/45/23 4/46/23 
f 1/47/24 4/46/24 40/45/24 41/48/24 
f 1/47/25 41/48/25 42/49/25 17/50/25 
f 17/51/26 42/52/26 43/53/26 16/54/26 
f 13/55/27 16/54/27 43/53/27 44/56/27 
f 13/55/28 44/56/28 45/57/28 23/58/28 
f 23/59/29 45/60/29 46/61/29 12/62/29 
f 9/63/30 12/62/30 46/61/30 47/64/30 
f 9/63/31 47/64/31 48/65/31 21/66/31 
f 21/67/32 48/68/32 37/39/32 8/38/32 
f 37/69/33 49/70/33 50/71/33 38/72/33 
f 38/72/34 50/71/34 51/73/34 39/74/34 
f 39/74/35 51/73/35 52/75/35 40/76/35 
f 40/76/33 52/75/33 53/77/33 41/78/33 
f 41/78/36 53/77/36 54/79/36 42/80/36 
f 42/80/37 54/79/37 55/81/37 43/82/37 
f 43/82/33 55/81/33 56/83/33 44/84/33 
f 44/84/38 56/83/38 57/85/38 45/86/38 
f 45/86/39 57/85/39 58/87/39 46/88/39 
f 46/88/33 58/87/33 59/89/33 47/90/33 
f 47/90/40 59/89/40 60/91/40 48/92/40 
f 48/92/40 60/91/40 49/70/40 37/69/40 
f 49/93/41 61/94/41 62/95/41 50/96/41 
f 50/96/42 62/95/42 63/97/42 51/98/42 
f 51/99/43 63/100/43 64/101/43 52/102/43 
f 52/102/44 64/101/44 65/103/44 53/104/44 
f 53/104/45 65/103/45 66/105/45 54/106/45 
f 54/107/46 66/108/46 67/109/46 55/110/46 
f 55/110/27 67/109/27 68/111/27 56/112/27 
f 56/112/47 68/111/47 69/113/47 57/114/47 
f 57/115/48 69/116/48 70/117/48 58/118/48 
f 58/118/49 70/117/49 71/119/49 59/120/49 
f 59/120/50 71/119/50 72/121/50 60/122/50 
f 60/123/51 72/124/51 61/94/51 49/93/51 
f 72/125/33 71/126/33 70/127/33 62/128/33 
f 66/129/33 62/128/33 70/127/33 68/130/33 
f 70/127/33 69/131/33 68/130/33 
f 68/130/33 67/132/33 66/129/33 
f 64/133/33 62/128/33 66/129/33 65/134/33 
f 64/133/33 63/135/33 62/128/33 
f 61/136/33 72/125/33 62/128/33 
# 64 polygons - 12 triangles

